<?xml version="1.0" encoding="UTF-8"?>
<svg xmlns="http://www.w3.org/2000/svg" xmlns:xlink="http://www.w3.org/1999/xlink" width="96pt" height="96pt" viewBox="0 0 96 96" version="1.1">
<g id="surface10976433">
<path style=" stroke:none;fill-rule:nonzero;fill:rgb(41.568627%,41.176471%,41.176471%);fill-opacity:1;" d="M 48 8 C 43.257812 8 38.167969 14.765625 35.03125 25.460938 C 34.660156 26.730469 35.648438 28 36.96875 28 L 59.03125 28 C 60.351562 28 61.335938 26.730469 60.96875 25.460938 C 57.832031 14.765625 52.742188 8 48 8 Z M 32.265625 11.234375 C 25.078125 14.324219 18.996094 19.464844 14.710938 25.914062 C 14.121094 26.796875 14.789062 28 15.851562 28 L 23.71875 28 C 25.421875 28 26.191406 27.34375 26.40625 26.445312 C 27.820312 20.539062 29.820312 15.390625 32.265625 11.234375 Z M 63.734375 11.234375 C 66.179688 15.390625 68.179688 20.542969 69.59375 26.445312 C 69.808594 27.34375 70.605469 28 71.53125 28 L 80.132812 28 C 81.195312 28 81.878906 26.796875 81.289062 25.914062 C 77.003906 19.464844 70.921875 14.324219 63.734375 11.234375 Z M 10.875 36 C 10.265625 36 9.714844 36.398438 9.546875 36.976562 C 8.542969 40.480469 8 44.179688 8 48 C 8 51.820312 8.542969 55.519531 9.546875 59.023438 C 9.714844 59.601562 10.265625 60 10.875 60 L 22.515625 60 C 23.699219 60 24.601562 58.988281 24.484375 57.8125 C 24.175781 54.660156 24 51.390625 24 48 C 24 44.609375 24.171875 41.339844 24.484375 38.1875 C 24.601562 37.011719 23.699219 36 22.515625 36 Z M 34.59375 36 C 33.578125 36 32.707031 36.742188 32.585938 37.75 C 32.210938 40.996094 32 44.429688 32 48 C 32 51.570312 32.210938 55.003906 32.585938 58.25 C 32.707031 59.257812 33.578125 60 34.59375 60 L 61.40625 60 C 62.421875 60 63.292969 59.257812 63.414062 58.25 C 63.789062 55.003906 64 51.570312 64 48 C 64 44.429688 63.789062 40.996094 63.414062 37.75 C 63.292969 36.742188 62.421875 36 61.40625 36 Z M 73.484375 36 C 72.300781 36 71.398438 37.011719 71.515625 38.1875 C 71.824219 41.339844 72 44.609375 72 48 C 72 51.390625 71.828125 54.660156 71.515625 57.8125 C 71.398438 58.988281 72.300781 60 73.484375 60 L 85.125 60 C 85.734375 60 86.285156 59.601562 86.453125 59.023438 C 87.457031 55.519531 88 51.820312 88 48 C 88 44.179688 87.457031 40.480469 86.453125 36.976562 C 86.285156 36.398438 85.734375 36 85.125 36 Z M 15.867188 68 C 14.804688 68 14.121094 69.203125 14.710938 70.085938 C 18.996094 76.535156 25.078125 81.675781 32.265625 84.765625 C 29.820312 80.609375 27.820312 75.457031 26.40625 69.554688 C 26.191406 68.65625 25.394531 68 24.46875 68 Z M 36.96875 68 C 35.648438 68 34.664062 69.269531 35.03125 70.539062 C 38.167969 81.234375 43.257812 88 48 88 C 52.742188 88 57.832031 81.234375 60.96875 70.539062 C 61.339844 69.269531 60.351562 68 59.03125 68 Z M 72.28125 68 C 70.578125 68 69.808594 68.65625 69.59375 69.554688 C 68.179688 75.460938 66.179688 80.609375 63.734375 84.765625 C 70.921875 81.675781 77.003906 76.535156 81.289062 70.085938 C 81.878906 69.203125 81.210938 68 80.148438 68 Z M 72.28125 68 "/>
</g>
</svg>
