<?xml version="1.0" encoding="UTF-8"?>
<svg xmlns="http://www.w3.org/2000/svg" xmlns:xlink="http://www.w3.org/1999/xlink" width="240" height="240" viewBox="0 0 240 240" version="1.1">
<g id="surface1">
<path style=" stroke:none;fill-rule:nonzero;fill:rgb(6.666667%,41.568627%,68.235294%);fill-opacity:1;" d="M 16.085938 59.085938 C -4.949219 89.320312 -2.328125 128.65625 13.738281 160.78125 C 14.121094 161.550781 14.519531 162.308594 14.914062 163.066406 C 15.167969 163.546875 15.40625 164.039062 15.667969 164.511719 C 15.8125 164.796875 15.980469 165.074219 16.136719 165.347656 C 16.410156 165.859375 16.6875 166.34375 16.972656 166.84375 C 17.472656 167.726562 17.984375 168.597656 18.507812 169.472656 C 18.796875 169.953125 19.082031 170.433594 19.382812 170.914062 C 19.960938 171.851562 20.554688 172.777344 21.164062 173.699219 C 21.414062 174.09375 21.660156 174.488281 21.921875 174.867188 C 22.757812 176.121094 23.617188 177.367188 24.5 178.59375 C 24.523438 178.625 24.546875 178.65625 24.574219 178.6875 C 24.710938 178.886719 24.867188 179.078125 25.007812 179.273438 C 25.773438 180.328125 26.5625 181.367188 27.355469 182.402344 C 27.652344 182.773438 27.949219 183.152344 28.242188 183.527344 C 28.953125 184.421875 29.679688 185.308594 30.414062 186.195312 C 30.691406 186.527344 30.964844 186.859375 31.242188 187.183594 C 32.230469 188.34375 33.238281 189.503906 34.269531 190.640625 C 34.289062 190.660156 34.3125 190.683594 34.332031 190.703125 C 34.371094 190.753906 34.410156 190.78125 34.445312 190.828125 C 35.453125 191.925781 36.480469 193.003906 37.523438 194.074219 C 37.84375 194.40625 38.175781 194.738281 38.507812 195.070312 C 39.316406 195.878906 40.136719 196.675781 40.964844 197.476562 C 41.300781 197.792969 41.632812 198.121094 41.96875 198.429688 C 43.074219 199.472656 44.191406 200.492188 45.332031 201.488281 C 45.351562 201.507812 45.367188 201.523438 45.386719 201.53125 C 45.578125 201.707031 45.777344 201.871094 45.96875 202.03125 C 46.976562 202.902344 47.996094 203.765625 49.027344 204.617188 C 49.445312 204.953125 49.871094 205.289062 50.292969 205.625 C 51.132812 206.296875 51.984375 206.960938 52.839844 207.613281 C 53.292969 207.960938 53.746094 208.304688 54.203125 208.652344 C 55.148438 209.34375 56.097656 210.03125 57.0625 210.699219 C 57.410156 210.953125 57.75 211.199219 58.101562 211.441406 C 58.199219 211.507812 58.289062 211.582031 58.386719 211.644531 C 59.300781 212.269531 60.230469 212.878906 61.164062 213.480469 C 61.5625 213.746094 61.960938 214.023438 62.367188 214.28125 C 63.796875 215.183594 65.246094 216.078125 66.710938 216.945312 C 67.113281 217.171875 67.511719 217.394531 67.914062 217.621094 C 68.992188 218.246094 70.074219 218.855469 71.175781 219.453125 C 71.769531 219.773438 72.378906 220.074219 72.980469 220.378906 C 73.757812 220.789062 74.527344 221.199219 75.316406 221.589844 C 75.492188 221.683594 75.679688 221.769531 75.855469 221.855469 C 76.171875 222.007812 76.492188 222.15625 76.808594 222.316406 C 78.03125 222.902344 79.265625 223.472656 80.507812 224.027344 C 80.773438 224.144531 81.03125 224.261719 81.292969 224.378906 C 82.71875 225 84.15625 225.601562 85.609375 226.175781 C 85.957031 226.3125 86.308594 226.449219 86.660156 226.589844 C 88.003906 227.105469 89.367188 227.617188 90.730469 228.097656 C 90.90625 228.15625 91.070312 228.214844 91.242188 228.269531 C 92.742188 228.796875 94.257812 229.28125 95.785156 229.757812 C 96.148438 229.867188 96.515625 229.984375 96.878906 230.089844 C 98.433594 230.554688 99.964844 231.113281 101.570312 231.410156 C 203.300781 249.960938 232.847656 170.277344 232.847656 170.277344 C 208.03125 202.609375 163.980469 211.140625 122.238281 201.644531 C 120.65625 201.289062 119.125 200.792969 117.582031 200.335938 C 117.1875 200.21875 116.804688 200.101562 116.417969 199.984375 C 114.914062 199.519531 113.417969 199.035156 111.933594 198.523438 C 111.730469 198.453125 111.523438 198.378906 111.316406 198.304688 C 109.988281 197.835938 108.671875 197.34375 107.363281 196.835938 C 106.992188 196.6875 106.621094 196.550781 106.253906 196.402344 C 104.816406 195.835938 103.390625 195.242188 101.984375 194.625 C 101.691406 194.503906 101.414062 194.375 101.132812 194.246094 C 99.921875 193.699219 98.722656 193.148438 97.527344 192.574219 C 97.183594 192.40625 96.835938 192.242188 96.488281 192.074219 C 95.550781 191.617188 94.625 191.132812 93.703125 190.65625 C 93.082031 190.332031 92.453125 190.023438 91.84375 189.683594 C 90.714844 189.078125 89.605469 188.449219 88.503906 187.8125 C 88.128906 187.601562 87.75 187.398438 87.375 187.183594 C 85.90625 186.320312 84.457031 185.425781 83.027344 184.515625 C 82.628906 184.265625 82.242188 183.996094 81.851562 183.738281 C 80.8125 183.066406 79.777344 182.382812 78.757812 181.675781 C 78.421875 181.453125 78.09375 181.203125 77.761719 180.976562 C 76.777344 180.285156 75.804688 179.578125 74.835938 178.863281 C 74.398438 178.539062 73.964844 178.207031 73.539062 177.882812 C 72.652344 177.203125 71.773438 176.523438 70.898438 175.816406 C 70.507812 175.503906 70.113281 175.191406 69.722656 174.875 C 68.613281 173.964844 67.519531 173.046875 66.433594 172.105469 C 66.320312 172.003906 66.199219 171.910156 66.074219 171.804688 C 64.90625 170.777344 63.753906 169.71875 62.621094 168.660156 C 62.289062 168.34375 61.96875 168.039062 61.644531 167.722656 C 60.804688 166.925781 59.976562 166.117188 59.164062 165.289062 C 58.839844 164.964844 58.511719 164.640625 58.191406 164.320312 C 57.152344 163.257812 56.136719 162.183594 55.140625 161.09375 C 55.09375 161.039062 55.039062 160.992188 54.992188 160.933594 C 53.9375 159.78125 52.910156 158.605469 51.902344 157.414062 C 51.628906 157.089844 51.363281 156.773438 51.09375 156.453125 C 50.339844 155.550781 49.597656 154.632812 48.867188 153.703125 C 48.59375 153.375 48.320312 153.03125 48.050781 152.691406 C 47.175781 151.554688 46.320312 150.421875 45.480469 149.269531 C 22.308594 117.664062 13.980469 74.066406 32.503906 38.261719 "/>
<path style=" stroke:none;fill-rule:nonzero;fill:rgb(6.666667%,41.568627%,68.235294%);fill-opacity:1;" d="M 81.382812 33.617188 C 66.171875 55.507812 66.996094 84.808594 78.863281 107.964844 C 80.851562 111.84375 83.089844 115.609375 85.59375 119.195312 C 87.871094 122.460938 90.398438 126.347656 93.421875 128.972656 C 94.519531 130.179688 95.664062 131.359375 96.835938 132.515625 C 97.132812 132.820312 97.433594 133.109375 97.734375 133.40625 C 98.871094 134.507812 100.027344 135.589844 101.222656 136.644531 C 101.269531 136.683594 101.316406 136.730469 101.363281 136.765625 C 101.378906 136.78125 101.390625 136.785156 101.398438 136.800781 C 102.71875 137.957031 104.082031 139.074219 105.46875 140.167969 C 105.777344 140.402344 106.082031 140.648438 106.394531 140.890625 C 107.78125 141.957031 109.199219 143.003906 110.652344 144.003906 C 110.695312 144.03125 110.734375 144.0625 110.777344 144.097656 C 111.417969 144.539062 112.074219 144.953125 112.722656 145.378906 C 113.035156 145.582031 113.328125 145.796875 113.644531 145.988281 C 114.679688 146.652344 115.730469 147.300781 116.800781 147.921875 C 116.953125 148.015625 117.101562 148.09375 117.246094 148.179688 C 118.167969 148.710938 119.101562 149.234375 120.039062 149.738281 C 120.367188 149.925781 120.699219 150.085938 121.03125 150.257812 C 121.679688 150.597656 122.324219 150.9375 122.984375 151.269531 C 123.082031 151.316406 123.183594 151.359375 123.277344 151.402344 C 124.621094 152.0625 125.972656 152.699219 127.351562 153.296875 C 127.648438 153.425781 127.953125 153.542969 128.253906 153.667969 C 129.355469 154.136719 130.472656 154.59375 131.589844 155.023438 C 132.066406 155.203125 132.546875 155.375 133.019531 155.550781 C 134.035156 155.925781 135.058594 156.269531 136.085938 156.617188 C 136.550781 156.765625 137.007812 156.917969 137.472656 157.058594 C 138.933594 157.511719 140.378906 158.085938 141.90625 158.339844 C 220.449219 171.355469 238.582031 110.878906 238.582031 110.878906 C 222.234375 134.414062 190.582031 145.652344 156.800781 136.882812 C 155.300781 136.492188 153.824219 136.0625 152.355469 135.597656 C 151.90625 135.460938 151.464844 135.3125 151.019531 135.164062 C 149.972656 134.828125 148.933594 134.46875 147.90625 134.09375 C 147.433594 133.921875 146.964844 133.75 146.5 133.574219 C 145.371094 133.136719 144.257812 132.691406 143.152344 132.21875 C 142.851562 132.089844 142.542969 131.976562 142.25 131.839844 C 140.863281 131.238281 139.496094 130.597656 138.152344 129.9375 C 137.457031 129.597656 136.777344 129.238281 136.097656 128.890625 C 135.703125 128.683594 135.304688 128.480469 134.910156 128.277344 C 134.035156 127.800781 133.167969 127.3125 132.308594 126.8125 C 132.105469 126.695312 131.894531 126.585938 131.6875 126.460938 C 130.625 125.835938 129.578125 125.199219 128.539062 124.539062 C 128.21875 124.332031 127.910156 124.113281 127.59375 123.902344 C 126.90625 123.457031 126.222656 123.007812 125.550781 122.554688 C 124.105469 121.558594 122.695312 120.511719 121.308594 119.449219 C 120.988281 119.195312 120.664062 118.949219 120.351562 118.699219 C 105.5625 107.023438 93.847656 91.066406 88.273438 72.980469 C 82.433594 54.21875 83.691406 33.160156 93.808594 16.070312 "/>
<path style=" stroke:none;fill-rule:nonzero;fill:rgb(6.666667%,41.568627%,68.235294%);fill-opacity:1;" d="M 136.300781 14.585938 C 127.332031 27.78125 126.453125 44.171875 132.675781 58.75 C 139.234375 74.222656 152.683594 86.359375 168.378906 92.109375 C 169.023438 92.351562 169.671875 92.570312 170.328125 92.789062 C 170.613281 92.878906 170.898438 92.976562 171.1875 93.058594 C 172.109375 93.351562 173.03125 93.691406 173.984375 93.871094 C 217.355469 102.25 229.117188 71.613281 232.25 67.105469 C 221.941406 81.941406 204.628906 85.503906 183.378906 80.347656 C 181.699219 79.933594 179.855469 79.332031 178.238281 78.757812 C 176.164062 78.019531 174.121094 77.175781 172.132812 76.222656 C 168.363281 74.410156 164.765625 72.207031 161.429688 69.691406 C 142.417969 55.265625 130.605469 27.746094 143.011719 5.332031 "/>
</g>
</svg>
