<?xml version="1.0" encoding="UTF-8"?>
<svg xmlns="http://www.w3.org/2000/svg" xmlns:xlink="http://www.w3.org/1999/xlink" width="96pt" height="96pt" viewBox="0 0 96 96" version="1.1">
<g id="surface10976848">
<path style=" stroke:none;fill-rule:nonzero;fill:rgb(41.568627%,41.176471%,41.176471%);fill-opacity:1;" d="M 51.5625 12 C 49.535156 12 47.832031 13.527344 47.609375 15.539062 L 40.492188 79.585938 C 40.226562 81.941406 42.070312 84 44.4375 84 C 46.460938 84 48.167969 82.472656 48.390625 80.460938 L 55.507812 16.414062 C 55.773438 14.058594 53.929688 12 51.5625 12 Z M 22.828125 26.828125 C 21.804688 26.828125 20.78125 27.21875 20 28 L 2.828125 45.171875 C 1.265625 46.734375 1.265625 49.269531 2.828125 50.828125 L 20 68 C 21.558594 69.558594 24.097656 69.558594 25.65625 68 C 27.214844 66.441406 27.214844 63.902344 25.65625 62.34375 L 11.3125 48 L 25.65625 33.65625 C 27.21875 32.097656 27.21875 29.558594 25.65625 28 C 24.875 27.21875 23.851562 26.828125 22.828125 26.828125 Z M 73.171875 26.828125 C 72.148438 26.828125 71.125 27.21875 70.34375 28 C 68.785156 29.558594 68.785156 32.097656 70.34375 33.65625 L 84.6875 48 L 70.34375 62.34375 C 68.785156 63.902344 68.785156 66.441406 70.34375 68 C 71.902344 69.558594 74.441406 69.558594 76 68 L 93.171875 50.828125 C 94.734375 49.265625 94.734375 46.730469 93.171875 45.171875 L 76 28 C 75.21875 27.21875 74.195312 26.828125 73.171875 26.828125 Z M 73.171875 26.828125 "/>
</g>
</svg>
